<svg xmlns="http://www.w3.org/2000/svg" version="1.1" xmlns:xlink="http://www.w3.org/1999/xlink" xmlns:svgjs="http://svgjs.dev/svgjs" width="1000" height="1000" viewBox="0 0 1000 1000"><rect width="1000" height="1000" fill="#ffffff"></rect><g transform="matrix(0.7,0,0,0.7,149.57575757575756,282.1265587044535)"><svg viewBox="0 0 396 247" data-background-color="#ffffff" preserveAspectRatio="xMidYMid meet" height="623" width="1000" xmlns="http://www.w3.org/2000/svg" xmlns:xlink="http://www.w3.org/1999/xlink"><g id="tight-bounds" transform="matrix(1,0,0,1,0.2400000000000091,-0.09999999999999432)"><svg viewBox="0 0 395.52 247.2" height="247.2" width="395.52"><g><svg></svg></g><g><svg viewBox="0 0 395.52 247.2" height="247.2" width="395.52"><g transform="matrix(1,0,0,1,75.54432000000001,89.54791085961068)"><svg viewBox="0 0 244.43135999999996 68.10417828077863" height="68.10417828077863" width="244.43135999999996"><g><svg viewBox="0 0 420.1667808814864 117.06809368819779" height="68.10417828077863" width="244.43135999999996"><g><rect width="4.58808973450113" height="101.65102201580125" x="159.13662503572579" y="7.708535836198273" fill="#35185a" opacity="1" stroke-width="0" stroke="transparent" fill-opacity="1" class="rect-qz-0" data-fill-palette-color="primary" rx="1%" id="qz-0" data-palette-color="#35185a"></rect></g><g transform="matrix(1,0,0,1,175.73542088148642,16.17945433751504)"><svg viewBox="0 0 244.43135999999998 84.70918501316771" height="84.70918501316771" width="244.43135999999998"><g id="textblocktransform"><svg viewBox="0 0 244.43135999999998 84.70918501316771" height="84.70918501316771" width="244.43135999999998" id="textblock"><g><svg viewBox="0 0 244.43135999999998 50.8764385674931" height="50.8764385674931" width="244.43135999999998"><g transform="matrix(1,0,0,1,0,0)"><svg width="244.43135999999998" viewBox="0.6 -33.5 163.34 34" height="50.8764385674931" data-palette-color="#35185a"><path d="M32.9-21L32.9-20.5Q32-20.5 31.53-20 31.05-19.5 30.65-18.5L30.65-18.5 23.1 0.4 16.65-15.4 10.25 0.35 2.85-17.95Q2.5-18.8 1.98-19.65 1.45-20.5 0.6-20.5L0.6-20.5 0.6-21 7.45-21 7.45-20.5Q7.1-20.5 6.58-20.18 6.05-19.85 6.05-19.1L6.05-19.1Q6.05-19 6.13-18.68 6.2-18.35 6.3-18.1L6.3-18.1 11.2-6 17.5-21.55 23.85-6 28.8-18.3Q29.05-19.05 29.05-19.35L29.05-19.35Q29.05-19.75 28.8-20.1 28.55-20.45 27.95-20.5L27.95-20.5 27.95-21 32.9-21ZM56.05-10.1L38.7-10.1Q38.9-8.35 39.55-6.78 40.2-5.2 41.27-4 42.35-2.8 43.9-2.08 45.45-1.35 47.5-1.35L47.5-1.35Q48.6-1.35 49.82-1.68 51.05-2 52.1-2.6 53.15-3.2 53.97-4.08 54.8-4.95 55.1-6.05L55.1-6.05 55.55-6.05 55.55-2.3Q55.25-2.3 54.87-2.1 54.5-1.9 54-1.6L54-1.6Q53-1 51.3-0.33 49.6 0.35 46.8 0.35L46.8 0.35Q44.55 0.35 42.52-0.3 40.5-0.95 38.95-2.3 37.4-3.65 36.47-5.75 35.55-7.85 35.55-10.75L35.55-10.75Q35.55-12.6 36.17-14.5 36.8-16.4 38.07-17.93 39.35-19.45 41.35-20.4 43.35-21.35 46.15-21.35L46.15-21.35Q48.65-21.35 50.52-20.5 52.4-19.65 53.62-18.15 54.85-16.65 55.45-14.6 56.05-12.55 56.05-10.1L56.05-10.1ZM45.95-19.7L45.95-19.7Q44.2-19.7 42.92-19 41.65-18.3 40.75-17.2 39.85-16.1 39.35-14.7 38.85-13.3 38.7-11.9L38.7-11.9 52.95-11.9Q52.9-13.35 52.42-14.75 51.95-16.15 51.1-17.25 50.25-18.35 48.95-19.03 47.65-19.7 45.95-19.7ZM70.9-21.35L70.9-21.35Q73.6-21.35 75.57-20.45 77.55-19.55 78.85-18.05 80.15-16.55 80.8-14.63 81.45-12.7 81.45-10.7L81.45-10.7Q81.45-8.65 80.8-6.68 80.15-4.7 78.82-3.13 77.5-1.55 75.55-0.6 73.6 0.35 71.05 0.35L71.05 0.35Q69.15 0.35 67.6-0.43 66.05-1.2 65.15-2.3L65.15-2.3 65.15 0 60.25 0 60.25-0.5Q60.6-0.5 60.9-0.8 61.2-1.1 61.42-1.5 61.65-1.9 61.75-2.38 61.85-2.85 61.85-3.25L61.85-3.25 61.85-28.75Q61.85-29.6 61.6-30.35 61.35-31.1 60.15-31.15L60.15-31.15 60.15-31.65 65.15-33.2 65.15-18.9Q66.3-20.05 67.87-20.7 69.45-21.35 70.9-21.35ZM71.4-1.35L71.4-1.35Q73.2-1.45 74.5-2.23 75.8-3 76.67-4.2 77.55-5.4 77.97-6.93 78.4-8.45 78.4-10.05L78.4-10.05Q78.4-11.85 77.9-13.55 77.4-15.25 76.42-16.6 75.45-17.95 74-18.78 72.55-19.6 70.7-19.6L70.7-19.6Q69.65-19.6 68.65-19.13 67.65-18.65 66.87-17.88 66.1-17.1 65.62-16.03 65.15-14.95 65.15-13.75L65.15-13.75 65.15-7.55Q65.15-6.1 65.7-4.95 66.25-3.8 67.15-3 68.05-2.2 69.17-1.78 70.3-1.35 71.4-1.35ZM103.49-31.7L103.49-31.7Q99.79-31.7 97.07-30.38 94.34-29.05 92.54-26.93 90.74-24.8 89.87-22.15 88.99-19.5 88.99-16.9L88.99-16.9Q88.99-13.95 90.14-11.13 91.29-8.3 93.32-6.13 95.34-3.95 98.04-2.63 100.74-1.3 103.89-1.3L103.89-1.3Q104.79-1.3 106.02-1.5 107.24-1.7 108.44-2.27 109.64-2.85 110.67-3.9 111.69-4.95 112.24-6.65L112.24-6.65 112.74-6.65 112.74-1.1Q111.99-1.1 111.17-0.9 110.34-0.7 109.34-0.45L109.34-0.45Q108.04-0.1 106.47 0.2 104.89 0.5 103.14 0.5L103.14 0.5Q98.79 0.5 95.49-1 92.19-2.5 89.99-4.9 87.79-7.3 86.69-10.33 85.59-13.35 85.59-16.45L85.59-16.45Q85.59-19.55 86.69-22.6 87.79-25.65 90.04-28.08 92.29-30.5 95.69-32 99.09-33.5 103.69-33.5L103.69-33.5Q105.34-33.5 106.67-33.2 107.99-32.9 109.04-32.6L109.04-32.6Q109.79-32.35 110.42-32.23 111.04-32.1 111.64-32.1L111.64-32.1 111.64-26.55 111.14-26.55Q110.84-28.1 110.04-29.13 109.24-30.15 108.17-30.7 107.09-31.25 105.87-31.48 104.64-31.7 103.49-31.7ZM124.24 0L117.74 0 117.74-0.5Q118.14-0.5 118.44-0.8 118.74-1.1 118.94-1.5 119.14-1.9 119.24-2.38 119.34-2.85 119.34-3.25L119.34-3.25 119.34-17.1Q119.34-17.95 119.09-18.73 118.84-19.5 117.64-19.55L117.64-19.55 117.64-20 122.64-21.6 122.64-3.25Q122.64-2.85 122.74-2.38 122.84-1.9 123.04-1.5 123.24-1.1 123.54-0.8 123.84-0.5 124.24-0.5L124.24-0.5 124.24 0ZM117.99-26.4L117.99-26.4Q117.99-27.4 118.67-28.1 119.34-28.8 120.34-28.8L120.34-28.8Q121.34-28.8 122.04-28.1 122.74-27.4 122.74-26.4L122.74-26.4Q122.74-25.4 122.04-24.75 121.34-24.1 120.34-24.1L120.34-24.1Q119.34-24.1 118.67-24.75 117.99-25.4 117.99-26.4ZM140.09-19.3L134.49-19.3 134.49-7.25Q134.49-5.95 134.54-4.9 134.59-3.85 134.79-3.15 134.99-2.45 135.39-2.08 135.79-1.7 136.49-1.7L136.49-1.7Q137.54-1.7 138.46-2.7 139.39-3.7 139.64-5.1L139.64-5.1 140.09-5.1 140.09-1.45Q139.64-1.45 139.34-1.15L139.34-1.15Q138.94-0.8 138.21-0.4 137.49 0 136.04 0L136.04 0Q134.24 0 133.24-0.7 132.24-1.4 131.79-2.55 131.34-3.7 131.26-5.1 131.19-6.5 131.19-7.95L131.19-7.95 131.19-19.3 128.39-19.3 128.39-21 131.19-21 131.19-25.45Q131.19-26.3 130.96-27.03 130.74-27.75 129.49-27.8L129.49-27.8 129.49-28.3 134.49-29.9 134.49-21 140.09-21 140.09-19.3ZM163.94-10.1L146.59-10.1Q146.79-8.35 147.44-6.78 148.09-5.2 149.16-4 150.24-2.8 151.79-2.08 153.34-1.35 155.39-1.35L155.39-1.35Q156.49-1.35 157.71-1.68 158.94-2 159.99-2.6 161.04-3.2 161.86-4.08 162.69-4.95 162.99-6.05L162.99-6.05 163.44-6.05 163.44-2.3Q163.14-2.3 162.76-2.1 162.39-1.9 161.89-1.6L161.89-1.6Q160.89-1 159.19-0.33 157.49 0.35 154.69 0.35L154.69 0.35Q152.44 0.35 150.41-0.3 148.39-0.95 146.84-2.3 145.29-3.65 144.36-5.75 143.44-7.85 143.44-10.75L143.44-10.75Q143.44-12.6 144.06-14.5 144.69-16.4 145.96-17.93 147.24-19.45 149.24-20.4 151.24-21.35 154.04-21.35L154.04-21.35Q156.54-21.35 158.41-20.5 160.29-19.65 161.51-18.15 162.74-16.65 163.34-14.6 163.94-12.55 163.94-10.1L163.94-10.1ZM153.84-19.7L153.84-19.7Q152.09-19.7 150.81-19 149.54-18.3 148.64-17.2 147.74-16.1 147.24-14.7 146.74-13.3 146.59-11.9L146.59-11.9 160.84-11.9Q160.79-13.35 160.31-14.75 159.84-16.15 158.99-17.25 158.14-18.35 156.84-19.03 155.54-19.7 153.84-19.7Z" opacity="1" transform="matrix(1,0,0,1,0,0)" fill="#35185a" class="wordmark-text-0" data-fill-palette-color="primary" id="text-0"></path></svg></g></svg></g><g transform="matrix(1,0,0,1,0,62.887144678752605)"><svg viewBox="0 0 197.37832319999995 21.82204033441511" height="21.82204033441511" width="197.37832319999995"><g transform="matrix(1,0,0,1,0,0)"><svg width="197.37832319999995" viewBox="3.5 -36.55 412.84 45.65" height="21.82204033441511" data-palette-color="#35185a"><path d="M3.5 0L3.5-34.3 7.9-34.3 7.9-4 21.9-4 21.9 0 3.5 0ZM34.85 0.6Q29.85 0.6 27.37-2.68 24.9-5.95 24.9-13.15L24.9-13.15Q24.9-20.2 27.35-23.55 29.8-26.9 34.8-26.9L34.8-26.9Q39.2-26.9 41.32-23.98 43.45-21.05 43.45-14.55L43.45-14.55 43.45-11.95 29.2-11.95Q29.25-7.35 30.62-5.2 32-3.05 34.95-3.05L34.95-3.05Q36.95-3.05 38.17-4.65 39.4-6.25 39.4-8.95L39.4-8.95 43.45-8.95Q43.45-4.55 41.07-1.98 38.7 0.6 34.85 0.6L34.85 0.6ZM29.25-15.6L39.15-15.6Q39.15-19.35 38.05-21.3 36.95-23.25 34.8-23.25L34.8-23.25Q32.15-23.25 30.82-21.38 29.5-19.5 29.25-15.6L29.25-15.6ZM53.24 0.5Q50.74 0.5 49.64-1.23 48.55-2.95 48.55-5.55L48.55-5.55 48.55-22.65 46.3-22.65 46.3-26.3 48.55-26.3 49.45-33.6 52.64-33.6 52.64-26.3 56.2-26.3 56.2-22.65 52.64-22.65 52.64-5.45Q52.64-3.05 54.99-3.05L54.99-3.05 56.2-3.05 56.2-0.2Q55.64 0.1 54.82 0.3 53.99 0.5 53.24 0.5L53.24 0.5ZM71.39 0L71.39-26.3 74.49-26.3 75.04-23.25 75.34-23.25Q77.29-26.9 81.34-26.9L81.34-26.9Q85.59-26.9 86.94-23.1L86.94-23.1Q87.94-24.95 89.67-25.93 91.39-26.9 93.34-26.9L93.34-26.9Q99.54-26.9 99.54-18.95L99.54-18.95 99.54 0 95.44 0 95.44-18.65Q95.44-21.2 94.54-22.23 93.64-23.25 92.04-23.25L92.04-23.25Q90.14-23.25 88.84-21.3 87.54-19.35 87.54-16.05L87.54-16.05 87.54 0 83.44 0 83.44-18.65Q83.44-21.2 82.54-22.23 81.64-23.25 80.04-23.25L80.04-23.25Q78.14-23.25 76.81-21.3 75.49-19.35 75.49-16.05L75.49-16.05 75.49 0 71.39 0ZM114.59 0.6Q109.59 0.6 107.11-2.68 104.64-5.95 104.64-13.15L104.64-13.15Q104.64-20.2 107.09-23.55 109.54-26.9 114.54-26.9L114.54-26.9Q118.94-26.9 121.06-23.98 123.19-21.05 123.19-14.55L123.19-14.55 123.19-11.95 108.94-11.95Q108.99-7.35 110.36-5.2 111.74-3.05 114.69-3.05L114.69-3.05Q116.69-3.05 117.91-4.65 119.14-6.25 119.14-8.95L119.14-8.95 123.19-8.95Q123.19-4.55 120.81-1.98 118.44 0.6 114.59 0.6L114.59 0.6ZM108.99-15.6L118.89-15.6Q118.89-19.35 117.79-21.3 116.69-23.25 114.54-23.25L114.54-23.25Q111.89-23.25 110.56-21.38 109.24-19.5 108.99-15.6L108.99-15.6ZM147.53 0.6Q142.88 0.6 140.71-2.73 138.53-6.05 138.53-13.15L138.53-13.15Q138.53-20.25 140.73-23.58 142.93-26.9 147.53-26.9L147.53-26.9Q151.73-26.9 153.66-24.3 155.58-21.7 155.58-16.55L155.58-16.55 151.33-16.55Q151.33-20.1 150.51-21.68 149.68-23.25 147.53-23.25L147.53-23.25Q145.13-23.25 143.98-20.98 142.83-18.7 142.83-14.1L142.83-14.1 142.83-12.2Q142.83-7.6 143.96-5.33 145.08-3.05 147.53-3.05L147.53-3.05Q149.68-3.05 150.61-4.7 151.53-6.35 151.53-9.75L151.53-9.75 155.58-9.75Q155.58-5.25 153.61-2.33 151.63 0.6 147.53 0.6L147.53 0.6ZM160.88 0L160.88-26.3 164.98-26.3 164.98 0 160.88 0ZM160.78-31.4L160.78-36.15 165.03-36.15 165.03-31.4 160.78-31.4ZM176.28 0.5Q173.78 0.5 172.68-1.23 171.58-2.95 171.58-5.55L171.58-5.55 171.58-22.65 169.33-22.65 169.33-26.3 171.58-26.3 172.48-33.6 175.68-33.6 175.68-26.3 179.23-26.3 179.23-22.65 175.68-22.65 175.68-5.45Q175.68-3.05 178.03-3.05L178.03-3.05 179.23-3.05 179.23-0.2Q178.68 0.1 177.85 0.3 177.03 0.5 176.28 0.5L176.28 0.5ZM192.08 0.6Q187.08 0.6 184.6-2.68 182.13-5.95 182.13-13.15L182.13-13.15Q182.13-20.2 184.58-23.55 187.03-26.9 192.03-26.9L192.03-26.9Q196.43-26.9 198.55-23.98 200.68-21.05 200.68-14.55L200.68-14.55 200.68-11.95 186.43-11.95Q186.47-7.35 187.85-5.2 189.22-3.05 192.18-3.05L192.18-3.05Q194.18-3.05 195.4-4.65 196.63-6.25 196.63-8.95L196.63-8.95 200.68-8.95Q200.68-4.55 198.3-1.98 195.93 0.6 192.08 0.6L192.08 0.6ZM186.47-15.6L196.38-15.6Q196.38-19.35 195.28-21.3 194.18-23.25 192.03-23.25L192.03-23.25Q189.38-23.25 188.05-21.38 186.72-19.5 186.47-15.6L186.47-15.6ZM221.87 0.5Q219.37 0.5 218.27-1.23 217.17-2.95 217.17-5.55L217.17-5.55 217.17-22.65 214.92-22.65 214.92-26.3 217.17-26.3 218.07-33.6 221.27-33.6 221.27-26.3 224.82-26.3 224.82-22.65 221.27-22.65 221.27-5.45Q221.27-3.05 223.62-3.05L223.62-3.05 224.82-3.05 224.82-0.2Q224.27 0.1 223.45 0.3 222.62 0.5 221.87 0.5L221.87 0.5ZM228.62 0L228.62-36.15 232.72-36.15 232.72-23.55 233.02-23.55Q234.92-26.9 238.92-26.9L238.92-26.9Q242.07-26.9 243.74-25.03 245.42-23.15 245.42-18.95L245.42-18.95 245.42 0 241.32 0 241.32-18.65Q241.32-21.2 240.37-22.23 239.42-23.25 237.62-23.25L237.62-23.25Q235.57-23.25 234.14-21.3 232.72-19.35 232.72-16.05L232.72-16.05 232.72 0 228.62 0ZM257.02 0.6Q254.32 0.6 252.22-1 250.12-2.6 250.12-6.8L250.12-6.8Q250.12-11.85 253.54-13.73 256.97-15.6 263.42-15.6L263.42-15.6 263.42-19Q263.42-21.05 262.52-22.15 261.62-23.25 259.27-23.25L259.27-23.25Q257.12-23.25 256.17-22.05 255.22-20.85 255.22-19.1L255.22-19.1 255.22-18.5 251.17-18.5Q251.12-18.8 251.12-19.6L251.12-19.6Q251.12-23.1 253.42-25 255.72-26.9 259.57-26.9L259.57-26.9Q263.52-26.9 265.52-25 267.52-23.1 267.52-19.55L267.52-19.55 267.52-4.8Q267.52-3.95 267.92-3.5 268.32-3.05 268.92-3.05L268.92-3.05 270.52-3.05 270.52-0.2Q269.42 0.4 267.82 0.4L267.82 0.4Q266.22 0.4 265.14-0.48 264.07-1.35 263.67-2.85L263.67-2.85 263.42-2.85Q262.42-1.2 260.74-0.3 259.07 0.6 257.02 0.6L257.02 0.6ZM257.97-3.05Q259.32-3.05 260.57-3.8 261.82-4.55 262.62-6.03 263.42-7.5 263.42-9.55L263.42-9.55 263.42-11.95Q258.92-11.95 256.67-10.93 254.42-9.9 254.42-7.05L254.42-7.05Q254.42-4.9 255.29-3.98 256.17-3.05 257.97-3.05L257.97-3.05ZM278.86 0.5Q276.36 0.5 275.26-1.23 274.16-2.95 274.16-5.55L274.16-5.55 274.16-22.65 271.91-22.65 271.91-26.3 274.16-26.3 275.06-33.6 278.26-33.6 278.26-26.3 281.81-26.3 281.81-22.65 278.26-22.65 278.26-5.45Q278.26-3.05 280.61-3.05L280.61-3.05 281.81-3.05 281.81-0.2Q281.26 0.1 280.44 0.3 279.61 0.5 278.86 0.5L278.86 0.5ZM296.76 0L296.76-22.65 294.46-22.65 294.46-26.3 296.76-26.3 296.76-30.5Q296.76-33.1 297.98-34.83 299.21-36.55 301.96-36.55L301.96-36.55Q303.71-36.55 305.41-35.95L305.41-35.95 305.41-33.1 303.21-33.1Q300.86-33.1 300.86-30.7L300.86-30.7 300.86-26.3 305.41-26.3 305.41-22.65 300.86-22.65 300.86 0 296.76 0ZM316.8 0.6Q312.15 0.6 309.78-2.78 307.4-6.15 307.4-13.15L307.4-13.15Q307.4-20.15 309.78-23.53 312.15-26.9 316.8-26.9L316.8-26.9Q321.45-26.9 323.83-23.53 326.2-20.15 326.2-13.15L326.2-13.15Q326.2-6.15 323.83-2.78 321.45 0.6 316.8 0.6L316.8 0.6ZM316.8-3.05Q321.9-3.05 321.9-12.2L321.9-12.2 321.9-14.1Q321.9-23.25 316.8-23.25L316.8-23.25Q311.7-23.25 311.7-14.1L311.7-14.1 311.7-12.2Q311.7-3.05 316.8-3.05L316.8-3.05ZM331.2 0L331.2-26.3 334.3-26.3 334.85-22.85 335.15-22.85Q335.7-24.6 336.8-25.75 337.9-26.9 339.6-26.9L339.6-26.9Q340.65-26.9 341.55-26.5L341.55-26.5 341.55-22.25 340.2-22.25Q338.05-22.25 336.68-20.78 335.3-19.3 335.3-16.05L335.3-16.05 335.3 0 331.2 0ZM358.1 9.1Q356.3 9.1 355.15 8.7L355.15 8.7 355.15 5.85 356.6 5.85Q360.55 5.85 361.8 0L361.8 0 353.75-26.3 358.25-26.3 362.7-10.6 364.05-5.9 364.25-5.9 365.4-10.7 369.15-26.3 373.3-26.3 366.6-1.35Q365.3 3.55 363.3 6.33 361.3 9.1 358.1 9.1L358.1 9.1ZM385.14 0.6Q380.49 0.6 378.12-2.78 375.74-6.15 375.74-13.15L375.74-13.15Q375.74-20.15 378.12-23.53 380.49-26.9 385.14-26.9L385.14-26.9Q389.79-26.9 392.17-23.53 394.54-20.15 394.54-13.15L394.54-13.15Q394.54-6.15 392.17-2.78 389.79 0.6 385.14 0.6L385.14 0.6ZM385.14-3.05Q390.24-3.05 390.24-12.2L390.24-12.2 390.24-14.1Q390.24-23.25 385.14-23.25L385.14-23.25Q380.04-23.25 380.04-14.1L380.04-14.1 380.04-12.2Q380.04-3.05 385.14-3.05L385.14-3.05ZM406.04 0.6Q402.89 0.6 401.22-1.28 399.54-3.15 399.54-7.35L399.54-7.35 399.54-26.3 403.64-26.3 403.64-7.65Q403.64-5.1 404.59-4.08 405.54-3.05 407.34-3.05L407.34-3.05Q409.39-3.05 410.82-5 412.24-6.95 412.24-10.25L412.24-10.25 412.24-26.3 416.34-26.3 416.34 0 413.24 0 412.69-3.05 412.39-3.05Q410.34 0.6 406.04 0.6L406.04 0.6Z" opacity="1" transform="matrix(1,0,0,1,0,0)" fill="#35185a" class="slogan-text-1" data-fill-palette-color="secondary" id="text-1"></path></svg></g></svg></g></svg></g></svg></g><g><svg viewBox="0 0 147.12591892446628 117.06809368819779" height="117.06809368819779" width="147.12591892446628"><g><svg xmlns="http://www.w3.org/2000/svg" xmlns:xlink="http://www.w3.org/1999/xlink" version="1.1" x="0" y="0" viewBox="5 14.194 90 71.61299999999999" enable-background="new 0 0 100 100" xml:space="preserve" height="117.06809368819779" width="147.12591892446628" class="icon-icon-0" data-fill-palette-color="accent" id="icon-0"><path d="M74.232 14.194c-11.467 0-20.767 9.296-20.767 20.764 0 25.101 21.214 50.849 39.275 50.849-9.916-9.916-16.445-21.011-17.792-30.117C86.083 55.311 95 46.186 95 34.958 95 23.49 85.702 14.194 74.232 14.194z" fill="#35185a" data-fill-palette-color="accent"></path><path d="M44.275 85.807c-9.916-9.916-16.445-21.011-17.792-30.117 11.133-0.379 20.05-9.503 20.05-20.73 0-11.468-9.299-20.764-20.767-20.764C14.298 14.194 5 23.49 5 34.958 5 60.059 26.214 85.807 44.275 85.807z" fill="#35185a" data-fill-palette-color="accent"></path></svg></g></svg></g></svg></g></svg></g><g><path d="M0 123.6c0-68.262 55.338-123.6 123.6-123.6 55.172 0 101.901 36.149 117.794 86.054l-1.401 0c-15.845-49.157-61.966-84.72-116.393-84.719-67.525 0-122.265 54.74-122.265 122.265 0 67.525 54.74 122.265 122.265 122.265 54.427 0 100.548-35.563 116.393-84.719h1.401c-15.893 49.905-62.622 86.054-117.794 86.054-68.262 0-123.6-55.338-123.6-123.6z" fill="#35185a" stroke="transparent" data-fill-palette-color="tertiary"></path></g></svg></g><defs></defs></svg><rect width="395.52" height="247.2" fill="none" stroke="none" visibility="hidden"></rect></g></svg></g></svg>